<svg width="38" height="38" viewBox="0 0 38 38" fill="none" xmlns="http://www.w3.org/2000/svg">
<g clip-path="url(#clip0_9_1709)">
<path d="M17.5163 -0.00634766H18.1825C18.3761 0.054662 18.5837 0.054662 18.7773 -0.00634766H19.2229C19.4158 0.0546284 19.6227 0.0546284 19.8156 -0.00634766H20.484C21.0367 0.0735682 21.5958 0.0714649 22.1507 0.119835C23.3536 0.256606 24.5327 0.554395 25.6564 1.00522C27.8217 1.79452 29.8225 2.97737 31.5582 4.49418C33.3196 6.01322 34.7872 7.8431 35.8878 9.89271C36.7259 11.4487 37.3468 13.1122 37.7332 14.837C37.9013 15.6172 37.8992 16.4122 37.9644 17.2008C37.9644 17.2954 37.9308 17.3985 38.0001 17.4868V18.1535C37.9392 18.3465 37.9392 18.5536 38.0001 18.7465V19.1903C37.9392 19.3833 37.9392 19.5904 38.0001 19.7834V20.5257C37.9181 21.0536 37.9266 21.5878 37.8782 22.1177C37.7371 23.3185 37.4375 24.4953 36.9871 25.6172C36.1965 27.7792 35.0121 29.7758 33.4939 31.5057C31.945 33.2926 30.0778 34.7759 27.9873 35.8801C26.313 36.7659 24.519 37.4034 22.6614 37.7728C22.1234 37.8625 21.5798 37.9145 21.0346 37.9285C19.2954 38.0411 17.5499 38.0094 15.8159 37.8338C14.1829 37.6139 12.5939 37.1414 11.1059 36.4332C9.40843 35.6813 7.83458 34.6766 6.43783 33.4532C4.66812 31.9239 3.19476 30.0818 2.09138 28.0189C1.26245 26.4715 0.646641 24.8189 0.260732 23.1062C0.0946927 22.3386 0.100999 21.5562 0.0316403 20.7802C0.0316403 20.6961 0.0589637 20.6077 -0.00408936 20.532V19.7897C0.054742 19.5964 0.054742 19.3899 -0.00408936 19.1966V18.7529C0.054742 18.5596 0.054742 18.3531 -0.00408936 18.1598V17.4174C0.0757779 16.9022 0.0694721 16.3806 0.113609 15.8633C0.245691 14.6753 0.538411 13.5108 0.983742 12.4016C1.77923 10.1993 2.98129 8.16607 4.52733 6.40795C6.10376 4.59501 8.00847 3.09657 10.1412 1.99155C11.6342 1.21632 13.2207 0.63672 14.8617 0.267049C15.6436 0.0967024 16.4381 0.100907 17.2283 0.0357127C17.325 0.0294035 17.428 0.0672591 17.5163 -0.00634766Z" fill="#3B5997"/>
<path d="M18.7772 -0.00634766C18.6868 0.0458888 18.5842 0.0733895 18.4798 0.0733895C18.3754 0.0733895 18.2729 0.0458888 18.1824 -0.00634766H18.7772Z" fill="#5E77AA"/>
<path d="M19.8155 -0.00634766C19.7254 0.045911 19.6232 0.0734345 19.5191 0.0734345C19.415 0.0734345 19.3128 0.045911 19.2228 -0.00634766H19.8155Z" fill="#5E77AA"/>
<path d="M0 18.1597C0.0522268 18.2498 0.0797336 18.352 0.0797336 18.4562C0.0797336 18.5603 0.0522268 18.6626 0 18.7527V18.1597Z" fill="#5E77AA"/>
<path d="M38.0084 18.7527C37.9558 18.6628 37.928 18.5604 37.928 18.4562C37.928 18.352 37.9558 18.2496 38.0084 18.1597V18.7527Z" fill="#5E77AA"/>
<path d="M0 19.1968C0.0522268 19.2869 0.0797336 19.3892 0.0797336 19.4933C0.0797336 19.5975 0.0522268 19.6998 0 19.7898V19.1968Z" fill="#5E77AA"/>
<path d="M38.0084 19.7898C37.9558 19.6999 37.928 19.5975 37.928 19.4933C37.928 19.3891 37.9558 19.2867 38.0084 19.1968V19.7898Z" fill="#5E77AA"/>
<path d="M20.3935 25.9433C20.3935 27.8697 20.3935 29.7961 20.3935 31.7225C20.3935 32.0191 20.3346 32.1284 20.0109 32.1242C18.5397 32.1074 17.0685 32.1074 15.5972 32.1242C15.2883 32.1242 15.2336 32.0191 15.2357 31.7414C15.2357 27.876 15.2357 24.0106 15.2483 20.1473C15.2483 19.7793 15.1453 19.691 14.7965 19.7099C14.229 19.7393 13.6594 19.7099 13.0898 19.7204C12.9028 19.7204 12.7977 19.6994 12.7998 19.4681C12.8096 18.1838 12.8096 16.8995 12.7998 15.6153C12.7998 15.3923 12.8901 15.3461 13.0877 15.3503C13.6699 15.3503 14.2521 15.3356 14.8322 15.3503C15.1453 15.3629 15.2525 15.2935 15.2525 14.9507C15.2045 13.9393 15.2165 12.926 15.2883 11.916C15.4984 9.95596 16.3392 8.43756 18.2749 7.69939C18.9903 7.45253 19.7441 7.33572 20.5007 7.35449C21.6377 7.35449 22.7769 7.37131 23.9139 7.35449C24.1767 7.35449 24.2481 7.44071 24.246 7.69518C24.2334 8.89182 24.246 10.0906 24.246 11.2893C24.246 11.5332 24.1704 11.6069 23.9265 11.6026C23.1615 11.59 22.3944 11.5921 21.6272 11.6026C20.7613 11.6026 20.4103 11.9518 20.3977 12.8119C20.3851 13.5543 20.3977 14.284 20.3977 15.0348C20.3977 15.2788 20.467 15.3482 20.7087 15.3461C21.7596 15.3335 22.8105 15.3461 23.8614 15.3335C24.1661 15.3335 24.2355 15.4218 24.204 15.7099C24.0639 16.9479 23.9364 18.188 23.8215 19.4302C23.8004 19.6552 23.7101 19.7099 23.4936 19.7078C22.5919 19.6952 21.6882 19.7078 20.7865 19.6952C20.4838 19.6952 20.3914 19.7604 20.3935 20.0758C20.4019 22.0422 20.3935 23.9938 20.3935 25.9433Z" fill="#FEFEFE"/>
</g>
<defs>
<clipPath id="clip0_9_1709">
<rect width="38" height="38" fill="white"/>
</clipPath>
</defs>
</svg>
