<svg width="108" height="27" viewBox="0 0 108 27" fill="none" xmlns="http://www.w3.org/2000/svg">
<path d="M0.4375 0.549716C1.58333 0.591237 2.75 0.445915 3.89583 0.611997C12.8125 4.3696 21.6667 8.25176 30.625 11.864C30.6458 8.08568 30.6042 4.32808 30.6042 0.549716C31.7292 0.570477 32.8542 0.549716 33.9792 0.570476C33.9792 9.12369 33.9792 17.6769 33.9583 26.2509C32.8333 26.2509 31.7083 26.2301 30.5833 26.2509C30.5833 22.7424 30.5833 19.2132 30.6042 15.7047C21.8542 11.5734 12.7708 8.14796 3.85417 4.39036C3.85417 11.6772 3.85417 18.9433 3.85417 26.2301C2.72917 26.2509 1.58333 26.2301 0.458333 26.2301C0.4375 17.6769 0.4375 9.12369 0.4375 0.549716Z" fill="#241E20"/>
<path d="M37.3333 0.591248C47.5833 0.591248 57.8542 0.591247 68.1042 0.612007C68.1042 1.8161 68.1042 3.04096 68.1042 4.24505C59.1875 4.24505 50.2708 4.22429 41.3333 4.22429C41.3125 6.63248 41.2708 9.04066 41.2708 11.4489C50.2083 11.4904 59.1458 11.4696 68.1042 11.4696C68.1042 12.6945 68.1042 13.8986 68.1042 15.1234C59.1875 15.1027 50.2708 15.1027 41.3542 15.1027C41.3542 17.6146 41.4375 20.1266 41.375 22.6386C50.6667 22.6594 59.9583 22.6594 69.2292 22.6594C69.2083 23.8635 69.2292 25.0883 69.2083 26.2924C58.5833 26.2924 47.9792 26.2509 37.3542 26.2301C37.3333 17.6977 37.3333 9.14447 37.3333 0.591248Z" fill="#241E20"/>
<path d="M72.1042 0.612C73.0833 0.549719 74.0625 0.59124 75.0417 0.612C75.3542 0.612 75.5833 0.861123 75.8542 1.00644C80.5208 4.03744 85.1875 7.10995 89.7292 10.307C94.6458 7.19299 99.4583 3.97516 104.271 0.757322C104.438 0.612 104.625 0.549719 104.854 0.57048C105.75 0.549719 106.646 0.59124 107.562 0.59124C107.583 9.16522 107.542 17.7184 107.562 26.2924C106.437 26.2924 105.312 26.2924 104.167 26.2924C104.167 19.3377 104.188 12.4038 104.167 5.44913C99.2917 8.18948 94.8958 11.698 90.0625 14.5006C85.1042 11.8018 80.6667 8.23101 75.7292 5.44913C75.6667 12.4038 75.7708 19.3585 75.6667 26.3132C74.4583 26.2716 73.25 26.3132 72.0208 26.2924C72.0208 17.926 72.0417 9.5389 72.0417 1.17253C72.0625 1.00644 72.1042 0.736562 72.1042 0.612Z" fill="#241E20"/>
</svg>
