<svg width="14" height="14" viewBox="0 0 14 14" fill="none" xmlns="http://www.w3.org/2000/svg">
<g clip-path="url(#clip0_9_1545)">
<path d="M7.46616 13.9998H6.53655C6.37495 13.9795 6.21308 13.9623 6.05202 13.9382C4.20596 13.6621 2.68363 12.8073 1.5234 11.3456C0.290863 9.79207 -0.194757 8.01099 0.0701021 6.04941C0.323457 4.17383 1.21938 2.64034 2.71184 1.47796C4.25553 0.275873 6.01779 -0.185626 7.95452 0.0663495C9.33934 0.246567 10.5626 0.812417 11.6091 1.73815C12.8797 2.86164 13.6541 4.26394 13.9186 5.94287C13.9496 6.13979 13.9729 6.33781 13.9997 6.53556V7.46513C13.9786 7.6311 13.9605 7.79763 13.9364 7.96333C13.7357 9.33934 13.1882 10.5598 12.2679 11.6027C11.1435 12.8771 9.73923 13.6539 8.05723 13.9187C7.86084 13.9497 7.66309 13.973 7.46588 13.9998H7.46616ZM6.99807 12.9097C10.2569 12.9122 12.903 10.2716 12.9101 7.01048C12.9173 3.74711 10.2698 1.09315 7.00491 1.09069C3.74608 1.08822 1.09996 3.72876 1.09284 6.98994C1.08571 10.2533 3.73321 12.9073 6.99807 12.9097Z" fill="#616161"/>
<path d="M6.45631 5.40735C6.45631 4.86999 6.45385 4.33262 6.45741 3.79525C6.45933 3.5263 6.64777 3.30116 6.89428 3.25761C7.15201 3.21188 7.40153 3.33704 7.49548 3.5756C7.53109 3.66571 7.54396 3.76978 7.54451 3.86756C7.54807 4.79193 7.54834 5.7163 7.54451 6.64067C7.54396 6.73817 7.57491 6.79541 7.65242 6.85293C8.26267 7.30594 8.86908 7.76415 9.47686 8.22017C9.66694 8.36259 9.7461 8.55431 9.69954 8.78301C9.65489 9.0013 9.51109 9.1418 9.29334 9.19822C9.13394 9.23958 8.98384 9.20781 8.85347 9.11058C8.12764 8.5691 7.4029 8.02598 6.67954 7.48122C6.52369 7.364 6.45549 7.20076 6.45577 7.00603C6.45686 6.47332 6.45604 5.94034 6.45631 5.40763V5.40735Z" fill="#616161"/>
</g>
<defs>
<clipPath id="clip0_9_1545">
<rect width="14" height="14" fill="white"/>
</clipPath>
</defs>
</svg>
