<svg width="100" height="100" viewBox="0 0 100 100" fill="none" xmlns="http://www.w3.org/2000/svg">
<path d="M99.6243 81.9118C96.2691 99.9254 61.2939 101.964 42.6065 98.7298C23.9191 95.4955 21.4383 78.5403 24.7935 60.5462C28.1487 42.5522 46.1447 40.9645 64.8117 44.1987C83.4991 47.4329 102.959 63.9177 99.6243 81.9118Z" fill="#FFE502"/>
<g clip-path="url(#clip0_101_3)">
<path d="M40.6144 86.6666C38.7834 86.1257 37.3138 85.1692 36.5982 83.292C33.4826 84.301 31.0879 83.4327 29.4454 80.7007C24.8584 82.6543 21.0517 79.3271 21.4932 75.2571C20.9661 75.1724 20.4216 75.1317 19.9049 74.9943C16.6846 74.143 15.0806 70.7395 16.4978 67.8023C16.5101 67.7769 16.5205 67.748 16.538 67.7277C18.3759 65.7266 17.5678 63.5458 16.922 61.4175C16.7806 60.9546 16.2971 60.473 15.8398 60.2389C14.639 59.6234 13.3613 59.1536 12.1273 58.5957C11.7311 58.4176 11.4867 58.4702 11.1533 58.7585C9.95947 59.7879 8.58932 60.0151 7.11792 59.3792C5.45104 58.6584 3.78416 57.936 2.14346 57.1627C0.258399 56.2741 -0.507843 54.3188 0.359633 52.4585C3.75274 45.1817 7.17028 37.9135 10.6105 30.657C11.5059 28.7679 13.5498 28.0641 15.5117 28.8985C17.0773 29.5632 18.6238 30.2687 20.1737 30.9657C22.3956 31.9645 23.1217 33.7638 22.2054 35.97C22.1425 36.1227 22.0972 36.2838 22.0256 36.489C23.8112 37.2877 25.5496 38.1203 27.3352 38.8445C28.5884 39.3515 29.8992 39.1039 31.1891 38.8495C32.8909 38.5155 34.5892 38.1543 36.3049 37.9101C38.7957 37.5539 41.1345 38.1034 43.3634 39.2108C43.6392 39.3481 44.1192 39.3736 44.3723 39.2294C48.4095 36.9316 52.5444 36.8977 56.8154 38.5528C58.4212 39.1751 60.0706 39.7263 61.7463 40.1231C62.406 40.2791 63.256 40.0688 63.9088 39.7839C65.3052 39.1751 66.63 38.4103 68.0437 37.6777C67.9652 37.3267 67.864 36.9808 67.8168 36.628C67.5847 34.9407 68.4661 33.4551 70.1417 32.7836C71.7737 32.1307 73.4214 31.5117 75.0708 30.9012C77.2037 30.111 79.1883 30.9368 80.0348 33.0091C81.892 37.5573 83.7124 42.1208 85.5539 46.6741C86.7704 49.6808 87.9975 52.6824 89.2193 55.6857V57.3781C88.5996 58.9484 87.3482 59.7692 85.7563 60.2712C84.4665 60.6782 83.2272 61.2361 81.9548 61.699C80.3281 62.2909 78.8671 62.0297 77.6837 60.7579C77.3731 60.4238 77.1514 60.3644 76.7325 60.551C75.6014 61.0529 74.4582 61.5312 73.2957 61.9619C72.2415 62.3519 71.2466 62.7318 71.573 64.1343C71.5905 64.2089 71.5398 64.2987 71.5224 64.3801C71.1157 66.4491 69.8101 67.7599 67.7627 68.4993C68.2602 70.3884 68.0909 72.1555 66.7207 73.6529C65.3628 75.135 63.6261 75.6353 61.57 75.3385C61.5752 76.9224 61.0289 78.2418 59.8629 79.2966C58.6761 80.3701 57.2204 80.7245 55.6216 80.6923C55.6093 80.8907 55.5989 81.028 55.5919 81.1654C55.4226 84.8504 51.5425 87.1754 48.0831 85.6508C47.3517 85.3286 46.6553 84.9352 46.2067 84.708C44.9169 85.4253 43.812 86.0409 42.7071 86.6548H40.6161L40.6144 86.6666ZM42.2568 72.2861C44.1192 71.7621 45.7215 72.1504 47.3203 73.1408C49.9227 74.7552 52.595 76.2746 55.3074 77.7093C56.6479 78.4182 58.2729 77.5567 58.6743 76.1356C58.9867 75.0265 58.4631 73.9446 57.2291 73.2629C54.6354 71.8282 52.0277 70.4173 49.4288 68.9894C48.4321 68.4416 48.1407 67.6768 48.6067 66.9154C49.043 66.2048 49.8425 66.0827 50.8077 66.6017C52.7608 67.6514 54.707 68.7113 56.6566 69.7661C58.2519 70.6292 59.8333 71.5179 61.446 72.3471C62.9873 73.1391 64.7327 72.4302 65.1411 70.8938C65.4413 69.7644 64.9212 68.7011 63.6872 68.0194C60.5384 66.2795 57.3775 64.5616 54.2287 62.82C53.3158 62.3163 53.0663 61.5871 53.4956 60.8528C53.9145 60.1355 54.7087 59.9693 55.6024 60.4424C56.5693 60.9546 57.5223 61.4905 58.4823 62.0162C60.6519 63.2066 62.8092 64.4225 64.9962 65.5825C66.7137 66.4931 68.6983 65.4621 68.7629 63.6425C68.803 62.5164 68.1921 61.7584 67.1955 61.2107C63.1845 59.0078 59.1316 56.866 55.2061 54.5257C52.9912 53.2064 50.8443 53.0622 48.502 53.9203C46.2015 54.7631 43.9202 55.6704 41.5796 56.3979C36.3259 58.031 32.4388 56.8727 29.2185 52.8418C28.2411 51.6174 28.3702 50.9204 29.7753 50.1352C34.0324 47.7611 37.813 44.8019 41.323 41.2135C40.3945 41.0032 39.5479 40.7319 38.6805 40.6285C36.5667 40.3741 34.5316 40.8896 32.5086 41.3882C29.7125 42.0784 27.0228 42.0479 24.4308 40.6098C23.2893 39.9773 22.0465 39.5211 20.8038 38.9649C18.1298 44.6493 15.4977 50.2472 12.8307 55.918C14.2707 56.537 15.6251 57.1627 17.0145 57.7037C18.3602 58.2277 19.1771 59.1672 19.6064 60.473C19.7426 60.8901 19.8595 61.3141 19.9869 61.7448C24.4675 59.1791 27.007 60.0541 29.1696 64.8821C32.2119 64.6142 34.2855 65.8792 35.3484 68.6519C38.8916 68.0669 40.8361 69.0793 42.2603 72.2827L42.2568 72.2861ZM76.2315 57.7868C73.863 51.9057 71.5154 46.0822 69.1503 40.2113C67.7627 40.932 66.4956 41.612 65.2092 42.2548C63.9088 42.9043 62.516 43.2366 61.0865 42.8415C59.3934 42.3735 57.7545 41.7274 56.0666 41.239C54.576 40.8065 53.0715 40.2893 51.5408 40.1553C48.4339 39.884 45.8489 41.2763 43.5502 43.1332C41.4312 44.8443 39.4711 46.7402 37.3417 48.4343C35.7359 49.7113 33.9713 50.7983 32.2241 52.0074C33.1824 53.0724 34.3378 53.827 35.7499 54.1713C37.7187 54.6512 39.6073 54.2273 41.4539 53.5812C43.7963 52.7621 46.1038 51.8446 48.4653 51.09C51.1219 50.2404 53.6702 50.4524 56.1417 51.9142C59.3341 53.8016 62.6382 55.5127 65.869 57.3425C67.3403 58.1768 68.7472 59.118 70.1941 59.9931C70.339 60.0812 70.5921 60.1219 70.7422 60.0609C72.5539 59.3266 74.357 58.5669 76.2333 57.7851L76.2315 57.7868ZM13.864 31.2234C13.6388 31.4185 13.3124 31.6016 13.1344 31.8763C12.8604 32.3003 12.6876 32.7887 12.4711 33.2482C9.34508 39.8976 6.22426 46.5486 3.08599 53.1911C2.78054 53.8372 2.6601 54.3799 3.44729 54.736C5.02167 55.4482 6.59604 56.1571 8.18263 56.8439C8.77608 57.1 9.25432 56.9423 9.53534 56.3335C9.87919 55.589 10.2318 54.8496 10.5808 54.1086C13.5533 47.7933 16.5258 41.4798 19.4947 35.1628C19.9747 34.1436 19.8595 33.8333 18.8437 33.3788C17.4508 32.7548 16.0562 32.1358 14.6599 31.5202C14.4522 31.4286 14.2323 31.3591 13.864 31.2234ZM80.2931 59.4029C80.3595 59.3554 80.4258 59.3096 80.4921 59.2622C80.5777 59.2503 80.6702 59.2537 80.7487 59.2232C82.447 58.577 84.1488 57.9428 85.8366 57.2713C86.3672 57.061 86.5488 56.6472 86.3079 56.0961C86.1054 55.6297 85.9326 55.1515 85.7441 54.68C83.0125 47.8951 80.2827 41.1101 77.5493 34.3268C77.1287 33.2822 76.8459 33.1635 75.7742 33.5721C74.3727 34.1046 72.9728 34.6422 71.573 35.1815C70.5345 35.5817 70.4175 35.8344 70.8225 36.8366C72.5086 41.0287 74.1999 45.2191 75.8877 49.4094C77.0903 52.3958 78.2772 55.3889 79.5042 58.3651C79.663 58.7517 80.0261 59.0587 80.2949 59.4029H80.2931ZM32.7198 70.1035C32.6343 68.9504 31.9169 67.9668 30.8993 67.704C29.7037 67.3953 28.5465 67.8447 27.9374 68.9233C26.8517 70.848 25.7957 72.788 24.7432 74.7297C23.9717 76.1542 24.3226 77.5601 25.595 78.2452C26.9058 78.9506 28.3353 78.4639 29.1487 77.0106C30.1977 75.1317 31.238 73.2459 32.2573 71.3517C32.4667 70.9633 32.568 70.5207 32.7198 70.1035ZM34.3117 80.9415C34.3535 81.0094 34.3972 81.0789 34.4391 81.1467C35.0535 80.7838 35.9052 80.5634 36.2421 80.0343C37.3941 78.2214 38.4309 76.3323 39.3804 74.4092C39.9127 73.3324 39.2879 71.9978 38.2301 71.4551C37.141 70.8972 35.6399 71.2041 35.0046 72.2708C33.9469 74.0446 32.9188 75.8439 32.0391 77.7042C31.3113 79.2423 32.5767 80.9314 34.3134 80.9415H34.3117ZM18.7285 69.9781C18.8262 71.1499 19.5454 72.0656 20.6781 72.3709C21.7498 72.6591 22.8791 72.2148 23.4848 71.1753C24.3104 69.7559 25.0871 68.3077 25.8655 66.8628C26.5899 65.518 26.2146 64.0664 24.9946 63.4067C23.7222 62.7165 22.2333 63.1931 21.4671 64.5565C20.6904 65.9386 19.9224 67.3275 19.1823 68.7282C18.9763 69.1183 18.8769 69.5592 18.7285 69.9781ZM44.0092 74.7942C43.0911 74.7704 42.3266 75.1283 41.8798 75.8812C40.9687 77.4159 40.089 78.9744 39.2983 80.5702C38.7189 81.7403 39.2826 83.0834 40.4451 83.6633C41.5901 84.2331 42.9847 83.9279 43.6462 82.8341C44.5678 81.3061 45.4562 79.7494 46.2242 78.1451C46.9869 76.5545 45.7721 74.8094 44.0075 74.7959L44.0092 74.7942ZM47.3395 82.1863C48.0185 82.5407 48.6311 82.9138 49.2874 83.1936C50.4603 83.6939 51.834 83.236 52.4431 82.1948C53.054 81.1501 52.8236 79.7799 51.8218 79.0982C51.0555 78.5776 50.1985 78.1807 49.4672 77.7771C48.7446 79.2729 48.0656 80.6804 47.3395 82.1846V82.1863Z" fill="black"/>
<path d="M68.3229 15.1556C70.9463 16.4173 72.8628 18.3251 73.924 21.0011C75.0742 23.8993 73.4702 26.1784 70.2586 26.1852C66.7451 26.1937 63.2333 26.1869 59.7197 26.1869C59.4038 26.1869 59.0879 26.1869 58.683 26.1869C58.655 26.6584 58.6323 27.0688 58.6044 27.4774C58.4211 30.0364 56.4855 31.9307 53.8499 31.9493C47.6955 31.9917 41.5394 31.9934 35.385 31.9493C32.7494 31.9307 30.8103 30.0297 30.634 27.4741C30.6078 27.084 30.5956 26.694 30.5729 26.1869C30.1889 26.1869 29.852 26.1869 29.5151 26.1869C25.944 26.1869 22.3729 26.1988 18.8017 26.1818C16.6758 26.1717 15.2114 25.027 14.9583 23.1294C14.8867 22.5952 14.988 21.9999 15.159 21.4793C16.0073 18.8966 17.6847 16.9498 20.0933 15.5931C20.3639 15.4405 20.6414 15.2981 20.9835 15.1149C19.5802 13.5531 19.0077 11.7775 19.3899 9.76968C19.6587 8.36384 20.404 7.20559 21.5316 6.28476C23.8181 4.41597 27.2635 4.46175 29.5256 6.38821C32.1263 8.60295 32.3078 11.6639 30.0772 15.0488C31.2414 15.8712 32.4038 16.6903 33.5418 17.4924C34.4041 16.7327 35.2681 15.8543 36.256 15.1403C37.2229 14.4417 38.3191 13.9109 39.4117 13.2749C37.5633 11.5384 36.5911 9.40677 36.8372 6.86812C37.0362 4.81957 37.984 3.1051 39.6107 1.76879C42.7333 -0.796989 47.3831 -0.54092 50.2543 2.34876C52.8218 4.9315 53.6299 9.59331 49.7726 13.3496C52.0713 14.3348 54.0768 15.6677 55.5988 17.5654C56.8031 16.7158 57.9795 15.8865 59.1577 15.0539C56.9271 11.6402 57.1051 8.62839 59.7075 6.3916C61.9504 4.46515 65.3994 4.41936 67.6998 6.28646C70.4017 8.47915 70.6147 11.4265 68.3195 15.1573L68.3229 15.1556ZM44.566 29.1936C45.9012 29.1936 47.2365 29.1936 48.57 29.1936C50.3101 29.1936 52.0521 29.2123 53.7923 29.1784C54.9006 29.1563 55.7053 28.4932 55.7611 27.53C55.8187 26.5193 55.8746 25.4866 55.7384 24.4894C54.7208 17.0855 46.0251 12.8408 39.2948 16.4987C35.1738 18.7372 33.2312 22.2238 33.4354 26.8381C33.5104 28.5424 34.1004 29.1868 35.8598 29.1936C38.7624 29.2021 41.6633 29.1953 44.566 29.197V29.1936ZM44.5921 12.4152C47.3586 12.4287 49.5771 10.3174 49.6224 7.63124C49.6678 4.97898 47.3464 2.70658 44.6044 2.71675C41.8902 2.72693 39.6247 4.93489 39.6177 7.57867C39.6089 10.2428 41.8326 12.4033 44.5939 12.4152H44.5921ZM58.5084 23.399C62.5753 23.399 66.6613 23.4109 70.7456 23.3871C71.435 23.3837 71.6515 22.9191 71.3547 22.1526C70.3057 19.4393 68.3125 17.7078 65.4028 17.1295C62.3885 16.5309 59.8018 17.4161 57.702 19.6224C57.3931 19.948 57.3163 20.2227 57.5083 20.6636C57.8801 21.5149 58.1523 22.4052 58.5084 23.399ZM30.73 23.4041C31.0738 22.4425 31.3391 21.5505 31.7179 20.706C31.9308 20.2329 31.8418 19.9361 31.5102 19.5936C29.3738 17.372 26.7504 16.5055 23.7116 17.155C20.8858 17.7587 18.9274 19.4562 17.9046 22.1136C17.5764 22.9649 17.8086 23.3939 18.6237 23.3973C22.6539 23.4143 26.6823 23.4041 30.73 23.4041ZM28.8309 10.9941C28.8641 9.18122 27.4154 7.69229 25.56 7.62955C23.7395 7.5685 22.1529 9.03878 22.1163 10.8211C22.0796 12.6831 23.551 14.1975 25.4256 14.2263C27.2653 14.2551 28.7978 12.7984 28.8309 10.9941ZM67.1256 10.8957C67.1151 9.09643 65.5931 7.62107 63.7569 7.62955C61.9172 7.63803 60.4127 9.11678 60.4074 10.9194C60.4022 12.7628 61.9521 14.2619 63.8232 14.2263C65.6664 14.1907 67.136 12.7085 67.1256 10.8957Z" fill="black"/>
<path d="M13.8639 31.2235C14.2322 31.3592 14.4521 31.4287 14.6598 31.5203C16.0562 32.1359 17.4508 32.7548 18.8436 33.3789C19.8595 33.8351 19.9747 34.1437 19.4947 35.1629C16.5257 41.4781 13.5515 47.7934 10.5808 54.1086C10.2317 54.8497 9.87911 55.5891 9.53526 56.3335C9.25425 56.9423 8.77426 57.1001 8.18256 56.844C6.59597 56.1589 5.02159 55.4483 3.44722 54.7361C2.65829 54.38 2.78047 53.8356 3.08592 53.1912C6.22419 46.5487 9.34501 39.8959 12.4711 33.2483C12.6875 32.7888 12.8586 32.3004 13.1343 31.8764C13.3124 31.6017 13.6388 31.4185 13.8639 31.2235ZM15.3318 37.4099C16.4053 37.4031 17.2553 36.5789 17.2605 35.5377C17.2658 34.4659 16.3808 33.6333 15.2603 33.6553C14.1746 33.6774 13.3612 34.5032 13.3822 35.5631C13.4014 36.6061 14.2566 37.415 15.3336 37.4082L15.3318 37.4099Z" fill="white"/>
<path d="M15.3318 37.4098C14.2549 37.4166 13.3996 36.6077 13.3804 35.5648C13.3612 34.5049 14.1746 33.679 15.2585 33.657C16.3791 33.6332 17.2657 34.4659 17.2588 35.5394C17.2535 36.5806 16.4035 37.4048 15.3301 37.4115L15.3318 37.4098Z" fill="black"/>
<path d="M75.0079 35.5851C76.0307 35.5936 76.9541 36.4924 76.961 37.4861C76.968 38.4782 76.0534 39.3855 75.0271 39.4058C73.9746 39.4262 73.0164 38.4901 73.0373 37.4607C73.0583 36.4602 73.9868 35.575 75.0079 35.5834V35.5851Z" fill="black"/>
</g>
<defs>
<clipPath id="clip0_101_3">
<rect width="89.2157" height="86.6667" fill="white"/>
</clipPath>
</defs>
</svg>
