<svg width="38" height="38" viewBox="0 0 38 38" fill="none" xmlns="http://www.w3.org/2000/svg">
<g clip-path="url(#clip0_9_1734)">
<path d="M20.3373 0.000127973H20.5594C21.082 0.0836445 21.6113 0.0819741 22.1373 0.125403C23.58 0.243996 24.9341 0.699997 26.2566 1.24285C28.0108 1.95572 29.6468 2.93058 31.1088 4.13419C31.6636 4.58683 32.188 5.07563 32.6784 5.5974C32.7646 5.66827 32.8236 5.76685 32.8454 5.87635C32.8188 6.061 32.7277 6.23027 32.5882 6.35406C31.6415 7.30448 30.688 8.24989 29.7413 9.19362C29.7126 9.23365 29.6754 9.26683 29.6324 9.2908C29.5894 9.31477 29.5416 9.32893 29.4925 9.33226C29.4096 9.31366 29.3327 9.27461 29.2688 9.21868C28.5658 8.47037 27.7042 8.16637 26.6773 8.16971C21.5011 8.18808 16.3249 8.16971 11.1387 8.16971C10.3038 8.16971 9.55579 8.38184 8.94132 8.98316C8.32686 9.58448 8.12649 10.2927 8.12482 11.0978C8.12482 14.0109 8.12482 16.9239 8.12482 19.837C8.12482 22.0819 8.13651 24.3285 8.12482 26.5751C8.12482 27.4954 8.34355 28.3055 8.98641 28.9787C9.02877 29.0241 9.06371 29.076 9.08993 29.1323C9.11255 29.1662 9.13105 29.2027 9.14503 29.2409C9.14536 29.3212 9.12696 29.4004 9.09131 29.4723C9.05565 29.5442 9.00373 29.6068 8.93965 29.6552C8.0046 30.6028 7.0623 31.5432 6.11278 32.4763C6.01835 32.5753 5.89892 32.6469 5.76714 32.6835C5.4165 32.6233 5.24284 32.3277 5.03245 32.0989C3.60739 30.5856 2.43374 28.8538 1.55605 26.9693C0.923485 25.627 0.463966 24.2098 0.188532 22.7517C0.0733199 22.112 0.105046 21.4522 0.00653076 20.8074V17.1177C0.0916876 16.6433 0.0883481 16.1622 0.131761 15.6845C0.263671 14.2564 0.731199 12.9218 1.26886 11.6106C2.00655 9.82824 3.01345 8.16976 4.25435 6.69314C5.68918 4.97566 7.4126 3.52183 9.34707 2.39705C10.9937 1.43766 12.7752 0.731559 14.6318 0.302459C15.4583 0.10703 16.2932 0.11037 17.1281 0.0318646C17.2116 0.0318646 17.295 0.0585897 17.3769 -0.00488281H17.6724C17.7031 0.0228179 17.7429 0.0381511 17.7843 0.0381511C17.8256 0.0381511 17.8655 0.0228179 17.8962 -0.00488281H20.0484C20.0902 0.0402161 20.1436 0.0301943 20.1971 0.0318646C20.2505 0.033535 20.3006 0.0452269 20.3373 0.000127973Z" fill="#EF5D4A"/>
<path d="M29.5311 9.27208C29.5874 9.10786 29.6915 8.9642 29.83 8.85951C30.6938 7.99985 31.5565 7.13907 32.4181 6.27718C32.5299 6.1636 32.6301 6.03832 32.7353 5.91973C32.9474 5.81283 33.0609 5.97485 33.1761 6.08676C33.6778 6.61296 34.1384 7.17697 34.5537 7.7738C36.1368 9.94456 37.2332 12.4315 37.7679 15.0648C37.9182 15.8081 37.9115 16.5681 37.9649 17.3181C37.975 17.45 37.9249 17.587 38.0017 17.7139V18.3821C37.9399 18.775 37.9399 19.1751 38.0017 19.568V20.2361C37.9215 20.8425 37.9115 21.4555 37.8681 22.0735C37.7879 23.1742 37.4824 24.2199 37.1234 25.2471C36.3984 27.3556 35.3012 29.317 33.8841 31.0382C31.0373 34.5424 27.0463 36.9302 22.6133 37.7813C22.1224 37.8623 21.6264 37.9086 21.1289 37.9199C19.3273 38.0084 17.5173 38.0552 15.729 37.823C13.5867 37.5441 11.588 36.7774 9.69954 35.7385C8.37924 35.0038 7.14683 34.1212 6.0261 33.1077C5.8825 32.9791 5.65208 32.8655 5.78232 32.5949C6.84762 31.4791 7.93128 30.3817 9.0617 29.3311C9.13072 29.3041 9.2053 29.2943 9.27893 29.3028C9.35257 29.3112 9.42302 29.3376 9.48414 29.3795C10.009 29.6399 10.5882 29.7716 11.1739 29.7637C16.4147 29.757 21.656 29.757 26.8979 29.7637C27.9916 29.7637 28.8665 29.3528 29.4526 28.4024C29.7049 27.9604 29.827 27.456 29.8049 26.9475C29.8049 22.9387 29.8049 18.9271 29.8049 14.9128C29.8049 13.6166 29.8049 12.3221 29.8049 11.0259C29.8154 10.5671 29.7271 10.1114 29.5461 9.68967C29.4843 9.5527 29.3992 9.41239 29.5311 9.27208Z" fill="#D85443"/>
<path d="M38 19.5629C37.8815 19.1765 37.8815 18.7634 38 18.377V19.5629Z" fill="#E26E5F"/>
<path d="M17.888 0C17.8129 0.0734945 17.7394 0.10022 17.6642 0H17.888Z" fill="#F6A59A"/>
<path d="M20.1922 0.0634733C20.1636 0.0669308 20.1345 0.0629001 20.1079 0.051776C20.0813 0.0406518 20.058 0.0228131 20.0403 0H20.1889C20.244 0.0183736 20.2457 0.0317371 20.1922 0.0634733Z" fill="#F59C90"/>
<path d="M20.1922 0.0634733C20.1922 0.0417591 20.1922 0.0217143 20.1922 0H20.3408C20.3091 0.0668132 20.2506 0.066814 20.1922 0.0634733Z" fill="#F7B0A7"/>
<path d="M9.05335 29.2709C8.27859 28.6746 7.94464 27.8728 7.94464 26.9241C7.94464 24.148 7.94464 21.3714 7.94464 18.5942C7.94464 16.102 7.94464 13.6093 7.94464 11.1161C7.94464 9.24031 9.17691 8.00928 11.0554 8.00928H26.9279C27.9381 8.00928 28.7864 8.34334 29.3958 9.17851C29.466 9.37394 29.3558 9.51257 29.2289 9.6295C28.8148 10.0454 28.394 10.4647 27.9799 10.8739C27.9286 10.9429 27.8591 10.9964 27.7792 11.0282C27.6993 11.0601 27.6121 11.0691 27.5274 11.0543C27.0131 10.7369 26.4454 10.6818 25.8576 10.7018C25.3768 10.7186 24.8942 10.6935 24.415 10.7018C23.5601 10.7336 23.2645 11.0359 23.2595 11.8828C23.2595 12.4991 23.2729 13.1138 23.2595 13.7302C23.2247 14.1375 23.3282 14.5448 23.5534 14.886C23.5722 14.9692 23.5696 15.0558 23.5456 15.1376C23.5216 15.2195 23.4772 15.2939 23.4165 15.3537C23.1243 15.6494 22.8337 15.945 22.5349 16.2323C22.4828 16.2931 22.4165 16.3401 22.342 16.3693C22.2674 16.3984 22.1869 16.4087 22.1074 16.3993C21.8653 16.3158 21.7017 16.1221 21.508 15.9717C20.3191 15.0514 19.0033 14.8125 17.5991 15.337C16.1948 15.8615 15.3383 16.9138 15.0945 18.4221C14.8874 19.6765 15.3399 20.7205 16.128 21.6575C16.2404 21.7716 16.3344 21.9023 16.4069 22.0451C16.4147 22.1248 16.4024 22.2052 16.3712 22.279C16.34 22.3528 16.2908 22.4177 16.2282 22.4677C15.7106 22.9955 15.1897 23.52 14.6587 24.0327C14.6103 24.0972 14.5466 24.1486 14.4735 24.1824C14.4004 24.2162 14.32 24.2314 14.2396 24.2265C13.6151 23.8757 13.2077 23.3195 12.8286 22.7416C11.9103 21.3368 11.6598 19.7801 11.7834 18.1382C11.8168 17.7106 11.7834 17.6755 11.3476 17.6688H11.0838C10.6162 17.6805 10.5027 17.779 10.5027 18.2334C10.5027 20.9059 10.5027 23.5617 10.5027 26.2259C10.5027 26.6502 10.7181 26.9458 10.9769 27.2281C11.0221 27.3097 11.0372 27.4046 11.0195 27.4962C11.0018 27.5879 10.9524 27.6703 10.88 27.7292C10.4109 28.2119 9.9333 28.6846 9.45409 29.1556C9.40876 29.2157 9.34519 29.2593 9.27293 29.2801C9.20067 29.3009 9.12362 29.2977 9.05335 29.2709Z" fill="#FEFEFE"/>
<path d="M22.1374 16.3024C22.6521 15.9445 23.0988 15.4977 23.4565 14.9828C23.5267 14.9077 23.6102 14.931 23.692 14.9494C24.5757 15.0179 25.4627 15.0363 26.3485 15.0045C27.2652 14.9945 27.5708 14.6822 27.5775 13.7752C27.5841 12.8682 27.5925 11.9796 27.5424 11.0826C27.5488 11.0403 27.5694 11.0014 27.6008 10.9724C28.2367 10.4103 28.8383 9.81073 29.4025 9.17676L29.5344 9.27197C29.9268 9.90168 30.0236 10.5932 30.022 11.3231C30.012 16.4733 30.012 21.6224 30.022 26.7703C30.022 27.841 29.688 28.7296 28.8097 29.3727C28.3202 29.7375 27.7254 29.9333 27.1149 29.9306H10.8266C10.1942 29.9103 9.58213 29.7021 9.06837 29.3326C9.06161 29.3108 9.05658 29.2884 9.05334 29.2658C9.67449 28.7263 10.2305 28.1183 10.8116 27.5387C10.8541 27.4793 10.8879 27.414 10.9118 27.3449C10.9293 27.316 10.9538 27.2919 10.9829 27.2747C11.012 27.2575 11.045 27.2478 11.0787 27.2464C11.3989 27.257 11.7193 27.2508 12.0388 27.228C16.6874 27.228 21.3365 27.228 25.9862 27.228C27.2636 27.228 27.4322 27.061 27.4322 25.7681C27.4322 23.3116 27.4322 20.8551 27.4322 18.3986C27.4322 17.7305 27.0983 17.495 26.4571 17.6804C26.2417 17.7422 26.2233 17.8942 26.225 18.083C26.225 18.7511 26.2884 19.4192 26.1799 20.079C25.9663 21.3018 25.4449 22.45 24.6648 23.4154C23.8846 24.3807 22.8716 25.1314 21.7211 25.5965C20.5706 26.0616 19.3206 26.2259 18.0891 26.0739C16.8575 25.9219 15.685 25.4585 14.682 24.7275C14.5057 24.6351 14.3687 24.4821 14.2963 24.2966C14.2884 24.2525 14.296 24.207 14.318 24.168C14.819 23.565 15.4184 23.0539 15.9577 22.4876C16.0846 22.354 16.2082 22.2187 16.3334 22.0851C16.3441 22.0696 16.3583 22.0568 16.3748 22.0478C16.3914 22.0388 16.4098 22.0339 16.4286 22.0333C16.623 22.0703 16.8064 22.1514 16.9646 22.2705C17.6889 22.7092 18.5356 22.9017 19.3783 22.8192C20.221 22.7368 21.0144 22.3837 21.6399 21.8128C22.2696 21.2556 22.6965 20.5049 22.8537 19.6787C23.0108 18.8525 22.8893 17.9974 22.5081 17.2478C22.3662 16.9622 22.1742 16.7033 22.0857 16.3876C22.0867 16.3702 22.092 16.3534 22.101 16.3386C22.1101 16.3237 22.1226 16.3113 22.1374 16.3024Z" fill="#F0F1F1"/>
<path d="M22.1375 16.3027C22.1375 16.3211 22.1375 16.3395 22.1375 16.3595C22.1611 16.4363 22.1603 16.5186 22.1352 16.5949C22.1101 16.6712 22.0618 16.7378 21.9972 16.7855C20.5713 18.2153 19.1586 19.6484 17.7043 21.0565C17.4138 21.3388 17.0999 21.5994 16.816 21.8917C16.7661 21.9547 16.703 22.006 16.6312 22.0421C16.5594 22.0782 16.4806 22.0981 16.4002 22.1005H16.3668H16.3334C14.6988 20.6824 14.47 18.5527 15.4084 16.9492C15.7329 16.401 16.1784 15.9344 16.7109 15.585C17.2434 15.2356 17.8488 15.0127 18.4806 14.9334C19.1125 14.8541 19.7541 14.9204 20.3564 15.1274C20.9587 15.3343 21.5057 15.6764 21.9555 16.1274L22.1375 16.3027Z" fill="#EF5D4A"/>
<path d="M14.3131 24.1765C14.3114 24.1948 14.3114 24.2133 14.3131 24.2316C14.3098 24.2873 14.2951 24.3417 14.2698 24.3915C14.2445 24.4412 14.2092 24.4852 14.1661 24.5206C13.2811 25.3808 12.4563 26.3045 11.5146 27.1062C11.3872 27.2234 11.2311 27.3047 11.0621 27.3418L10.9118 27.3501C10.476 27.1112 10.314 26.7404 10.3157 26.2477C10.3257 23.4482 10.3257 20.6476 10.3157 17.8459C10.3157 17.5536 10.3908 17.4567 10.6847 17.4801C11.0181 17.5079 11.3532 17.5079 11.6865 17.4801C12.0205 17.4517 12.0723 17.5536 12.0205 17.866C11.7744 19.262 11.9815 20.7002 12.6116 21.97C13.0143 22.8188 13.5945 23.5713 14.3131 24.1765Z" fill="#EF5D4A"/>
<path d="M27.5975 10.9725C27.6017 10.9969 27.6017 11.0217 27.5975 11.046C27.5759 11.2306 27.4852 11.4001 27.3437 11.5204C26.2561 12.6061 25.1691 13.6913 24.0827 14.7759C23.9601 14.9164 23.7901 15.0068 23.6052 15.0298L23.4565 14.983C23.327 14.8688 23.225 14.7266 23.1585 14.5671C23.092 14.4077 23.0626 14.2352 23.0725 14.0627C23.0859 13.2492 23.0725 12.4358 23.0725 11.6223C23.0725 10.9542 23.4298 10.5767 24.0911 10.5616C24.9677 10.5416 25.8443 10.5616 26.7209 10.5616C26.8883 10.561 27.0537 10.5976 27.2053 10.6686C27.3569 10.7397 27.4909 10.8435 27.5975 10.9725Z" fill="#EF5D4A"/>
<path d="M11.0621 27.3416C11.8435 26.5732 12.6199 25.7982 13.4114 25.0382C13.7019 24.7592 13.929 24.4068 14.3131 24.2314C15.2628 25.0259 16.3957 25.5708 17.6091 25.8165C21.72 26.6066 25.4118 23.8005 25.9846 20.0506C26.1021 19.1991 26.0852 18.3345 25.9345 17.4883C26.4454 17.4883 26.9363 17.4883 27.4372 17.4883C27.5925 17.4883 27.6293 17.5634 27.6209 17.6937C27.6209 17.7555 27.6209 17.8173 27.6209 17.8791C27.6209 20.682 27.6209 23.4837 27.6209 26.2842C27.6209 27.0426 27.2502 27.4167 26.4821 27.4184C21.4896 27.4184 16.496 27.4184 11.5012 27.4184C11.3504 27.4414 11.1962 27.4144 11.0621 27.3416Z" fill="#D85443"/>
<path d="M16.3952 22.097C16.7755 21.6798 17.1773 21.2828 17.5991 20.9077C19.0868 19.4545 20.5495 17.9763 22.0206 16.5064C22.0606 16.4595 22.098 16.4105 22.1324 16.3594C22.7967 17.1265 23.1439 18.1179 23.1032 19.132C23.0626 20.1461 22.6372 21.1066 21.9137 21.818C20.4193 23.313 17.9431 23.4382 16.3952 22.097Z" fill="#D85443"/>
<path d="M23.6018 15.0296C24.9098 13.6778 26.2406 12.3499 27.5942 11.0459C27.7074 11.2381 27.7614 11.4595 27.7494 11.6823C27.7494 12.459 27.7494 13.2357 27.7494 14.0124C27.7494 14.7891 27.3888 15.1449 26.6174 15.1549C25.8142 15.1633 25.0111 15.1549 24.2079 15.1549C23.9977 15.1782 23.7856 15.1343 23.6018 15.0296Z" fill="#D85443"/>
</g>
<defs>
<clipPath id="clip0_9_1734">
<rect width="38" height="38" fill="white"/>
</clipPath>
</defs>
</svg>
