<svg width="100" height="100" viewBox="0 0 100 100" fill="none" xmlns="http://www.w3.org/2000/svg">
<path d="M99.6243 81.5605C96.2691 99.9239 61.2938 102.002 42.6065 98.705C23.9191 95.408 21.4383 78.1236 24.7935 59.7801C28.1487 41.4366 46.1447 39.8181 64.8117 43.1151C83.4991 46.4121 102.959 63.217 99.6243 81.5605Z" fill="#FFE502"/>
<g clip-path="url(#clip0_101_2)">
<path d="M87.2549 77.7202C87.0783 78.3187 86.9217 78.9262 86.7215 79.5176C85.3598 83.5324 81.7116 86.2924 77.4426 86.361C72.6293 86.4385 67.8123 86.3844 62.9972 86.3844C62.8807 86.3844 62.766 86.3555 62.5985 86.3339V83.5107H75.6057V67.7093H78.4893V83.3431C80.5883 82.8744 82.2122 81.8666 83.1716 80.1161C83.7596 79.0434 84.2165 77.7779 84.2875 76.5736C84.4295 74.1579 84.475 71.7007 84.1856 69.3047C83.5721 64.2209 79.629 60.6982 74.4206 60.5215C70.4575 60.3881 66.487 60.4909 62.5202 60.4927C62.3418 60.4927 62.1634 60.5432 61.914 60.5792C61.9522 60.8208 61.9887 61.0389 62.0196 61.2589C62.1925 62.4686 62.5002 63.6764 62.5148 64.8879C62.573 69.595 62.5439 74.3021 62.5366 79.0092C62.5311 83.1718 59.5474 86.2438 55.3622 86.3736C53.9167 86.4186 52.4676 86.3808 50.9694 86.3808V63.3844H53.8002V83.3827C57.3974 83.9272 59.6348 82.0613 59.6366 78.6126C59.6384 74.0551 59.6566 69.4976 59.6312 64.9402C59.6038 59.9951 56.3343 56.011 51.47 54.9527C50.9694 54.8446 50.4524 54.7616 49.9426 54.7616C45.6136 54.7634 41.2736 54.6048 36.9573 54.8518C31.7325 55.151 27.8149 59.3137 27.6874 64.5165C27.5673 69.4309 27.6201 74.3508 27.6692 79.267C27.6947 81.6881 29.6244 83.4603 32.0711 83.4873C32.4935 83.4927 32.914 83.4873 33.4401 83.4873V63.3934H36.3001V86.5052C34.1756 86.3718 31.9965 86.4926 29.9448 86.0437C26.8428 85.3658 24.762 82.4164 24.7529 79.2562C24.7401 74.3994 24.7128 69.5409 24.7729 64.6842C24.7893 63.3303 25.0951 61.9818 25.279 60.5504C24.9986 60.5306 24.6455 60.4855 24.2923 60.4855C20.6586 60.4801 17.0232 60.4621 13.3895 60.4855C7.33465 60.527 2.93641 64.9167 2.94369 70.9273C2.94551 73.1717 2.88361 75.4342 3.1403 77.6553C3.46616 80.4694 5.93471 82.8149 8.74187 83.2692V67.7075H11.6273V83.4567H24.6673V86.3375C24.3942 86.3537 24.1048 86.3844 23.8153 86.3844C19.3643 86.388 14.9114 86.3988 10.4604 86.3844C5.06817 86.3646 0.928433 82.9284 0.13289 77.6679C-0.107411 76.0814 0.0473283 74.4373 0.038226 72.8184C0.0254827 70.783 -0.0327722 68.7549 0.582545 66.7628C2.22278 61.4662 7.26365 57.6497 12.8525 57.5938C16.8502 57.5542 20.8516 57.473 24.8421 57.6407C26.3257 57.7038 27.1613 57.3432 28.1116 56.2147C30.6093 53.2491 33.9626 51.8555 37.862 51.8285C41.7087 51.8032 45.5553 51.7888 49.4001 51.8321C53.7984 51.8808 57.3519 53.6565 59.988 57.1557C60.343 57.6281 60.6543 57.7885 61.2532 57.6912C62.0232 57.5668 62.8206 57.5866 63.6052 57.583C66.9658 57.574 70.3282 57.5776 73.6906 57.5794C80.6502 57.583 85.8167 61.8268 87.0983 68.5854C87.1184 68.6954 87.2003 68.7946 87.2531 68.8991V77.7148L87.2549 77.7202Z" fill="black"/>
<path d="M48.9141 -5.65276e-05C49.1489 0.111717 49.3783 0.237912 49.6186 0.335263C51.3025 1.02032 52.3475 2.51844 52.3602 4.31402C52.373 5.93293 52.3802 7.55183 52.3529 9.17074C52.3438 9.68814 52.4804 9.93693 53.0174 10.1352C54.5703 10.7103 56.0976 11.3593 57.6068 12.039C58.051 12.2391 58.2949 12.1886 58.6172 11.8587C59.7131 10.7392 60.829 9.63766 61.9541 8.54698C63.9275 6.63421 66.5453 6.61979 68.5059 8.53075C70.492 10.4651 72.4636 12.414 74.4151 14.3844C76.2611 16.2485 76.2556 18.758 74.4279 20.6527C73.7998 21.3035 73.1499 21.9309 72.5018 22.5619C71.8556 23.1928 71.1984 23.813 70.5703 24.4133C71.4005 26.3784 72.2015 28.2695 73.0352 30.2382C74.7155 30.2382 76.4705 30.2345 78.2236 30.2382C81.0617 30.2454 82.8876 32.0446 82.8912 34.8371C82.8949 37.6855 82.9131 40.5339 82.884 43.3823C82.8603 45.6917 80.8432 47.5882 78.5804 47.4458V44.6857C79.7855 44.473 80.0204 43.6077 80.004 42.5098C79.9676 40.0219 79.9967 37.5322 79.9912 35.0444C79.9876 33.6562 79.4779 33.1479 78.0706 33.1406C75.8606 33.1316 73.6487 33.119 71.4387 33.1497C70.8525 33.1569 70.6086 32.9928 70.4647 32.3997C69.7566 29.4377 68.5168 26.6885 66.822 24.0438C68.5223 22.3726 70.1953 20.7302 71.8629 19.0825C73.1645 17.7989 73.159 17.2617 71.8483 15.9619C70.1152 14.2438 68.384 12.5221 66.6472 10.8077C65.5513 9.726 64.9323 9.72961 63.82 10.8293C62.1088 12.5221 60.4048 14.2204 58.8793 15.7347C55.6917 14.4187 52.6697 13.1693 49.4639 11.8443C49.4639 9.83236 49.4639 7.5302 49.4639 5.22623C49.4639 3.28102 49.0925 2.91145 47.1373 2.91145C44.6851 2.91145 42.2311 2.90604 39.779 2.91325C38.319 2.91866 37.8329 3.41443 37.8311 4.8783C37.8274 7.2742 37.8311 9.67011 37.8311 11.9524C35.723 12.7475 33.6895 13.4776 31.687 14.2835C30.8805 14.608 30.1105 15.0496 29.3823 15.5256C28.8507 15.8735 28.5285 15.8447 28.0789 15.3832C26.5442 13.8075 24.9659 12.2751 23.3948 10.7338C22.3863 9.74403 21.7145 9.75485 20.6932 10.7626C18.8691 12.5618 17.0487 14.3628 15.23 16.1674C14.1996 17.1896 14.2051 17.8602 15.2537 18.9022C16.8138 20.4526 18.3703 22.0084 19.9505 23.5372C20.3346 23.9086 20.4293 24.179 20.1143 24.6693C18.5833 27.0634 17.4947 29.6559 16.8357 32.4123C16.6918 33.0145 16.4224 33.1533 15.849 33.1461C13.6681 33.1172 11.489 33.1298 9.30804 33.1352C7.78249 33.1388 7.30371 33.6202 7.30188 35.1327C7.29824 37.6512 7.29824 40.1697 7.30188 42.6882C7.30188 43.9412 7.5258 44.2549 8.71092 44.6893V47.4422C6.51908 47.572 4.4565 45.7458 4.41827 43.5554C4.36183 40.4383 4.36183 37.3177 4.42009 34.2007C4.46014 32.0644 6.44263 30.2742 8.70364 30.24C10.5787 30.2111 12.4538 30.2346 14.2524 30.2346C15.0771 28.2857 15.869 26.4126 16.7009 24.4458C15.5541 23.3136 14.3307 22.113 13.1146 20.9033C10.941 18.7418 10.9465 16.2918 13.1274 14.1248C14.9879 12.2769 16.8466 10.4291 18.718 8.59205C20.7242 6.62159 23.3183 6.59996 25.3354 8.53976C26.4441 9.60521 27.5382 10.6851 28.6068 11.7884C28.9745 12.1688 29.2512 12.2391 29.7664 12.0029C31.2428 11.3233 32.7465 10.6923 34.2721 10.1298C34.8109 9.93152 34.9438 9.68093 34.9347 9.16533C34.9074 7.63657 34.922 6.1078 34.9256 4.57723C34.9293 2.37061 35.9742 0.926578 38.095 0.17842C38.197 0.142364 38.2807 0.0576328 38.3736 -0.00366211C41.8871 -0.00366211 45.3988 -0.00366211 48.9123 -0.00366211L48.9141 -5.65276e-05Z" fill="black"/>
<path d="M26.1419 38.8502H23.2564C23.5022 31.7724 26.3603 26.0774 32.2896 22.2086C39.2929 17.6386 46.7022 17.3916 53.9604 21.5632C60.5305 25.3383 63.709 31.2713 64.0476 38.8322H61.1785C60.9692 28.641 52.5313 21.4857 43.3962 21.6335C34.5779 21.776 26.5169 28.5292 26.1419 38.8502Z" fill="black"/>
<path d="M43.5983 50.4007C38.7213 50.3754 34.9001 46.5247 34.9256 41.6607C34.9493 36.9392 38.9252 33.0849 43.7349 33.1191C48.5518 33.1552 52.3985 37.0817 52.3621 41.9258C52.3256 46.6238 48.3953 50.4241 43.6002 50.3989L43.5983 50.4007ZM43.5947 47.5072C46.8206 47.5216 49.4548 44.949 49.4584 41.7797C49.4621 38.6645 46.8642 36.0703 43.6948 36.0252C40.5308 35.9783 37.8329 38.6248 37.8329 41.7725C37.8329 44.8968 40.4416 47.4928 43.5965 47.5072H43.5947Z" fill="black"/>
<path d="M18.8855 56.157C14.0085 56.1317 10.1891 52.281 10.2128 47.417C10.2365 42.6955 14.2124 38.8411 19.022 38.8772C23.839 38.9133 27.6856 42.8397 27.6474 47.6856C27.611 52.3837 23.6806 56.184 18.8837 56.1588L18.8855 56.157ZM18.9328 53.2635C22.1059 53.2635 24.7146 50.7107 24.7456 47.5757C24.7765 44.4316 22.115 41.7797 18.9292 41.7815C15.778 41.7833 13.1456 44.3685 13.1183 47.4891C13.091 50.6476 15.7252 53.2635 18.9328 53.2635Z" fill="black"/>
<path d="M68.3858 56.157C63.5943 56.1786 59.6676 52.3693 59.6402 47.6694C59.6111 42.8253 63.465 38.9042 68.2838 38.8754C73.0953 38.8466 77.0566 42.6991 77.0767 47.4296C77.0967 52.2864 73.2664 56.1353 68.3876 56.157H68.3858ZM68.3348 53.2635C71.5515 53.2689 74.1858 50.6711 74.1694 47.5072C74.153 44.3883 71.537 41.7995 68.3767 41.7797C65.2018 41.7599 62.5239 44.4118 62.5421 47.554C62.5603 50.6837 65.1708 53.2563 68.3348 53.2617V53.2635Z" fill="black"/>
</g>
<defs>
<clipPath id="clip0_101_2">
<rect width="87.2549" height="86.5087" fill="white"/>
</clipPath>
</defs>
</svg>
