<svg width="11" height="16" viewBox="0 0 11 16" fill="none" xmlns="http://www.w3.org/2000/svg">
<g clip-path="url(#clip0_9_1515)">
<path d="M5.62254 15.7915H5.37807C5.26564 15.6867 5.13666 15.5946 5.04414 15.4748C4.86462 15.2422 4.70409 14.995 4.53774 14.7523C3.63368 13.4356 2.7091 12.1324 1.83354 10.7975C1.1712 9.78751 0.639363 8.70468 0.290424 7.54198C-0.0300241 6.47379 -0.109983 5.39736 0.175847 4.30691C0.8918 1.57637 3.61591 -0.217676 6.48861 0.295996C8.59633 0.672791 10.3726 2.33148 10.8474 4.41422C10.9112 4.69377 10.9498 4.97911 11.0003 5.2614V6.14394C10.9908 6.17198 10.9749 6.19973 10.9724 6.22838C10.9203 6.83259 10.7684 7.41455 10.5665 7.98371C10.1128 9.26256 9.44984 10.4365 8.69222 11.555C7.80165 12.8698 6.88074 14.1642 5.96597 15.4626C5.87651 15.5897 5.73834 15.6827 5.62285 15.7915H5.62254ZM5.48744 14.5194C5.52604 14.4749 5.54718 14.4542 5.56372 14.4307C6.31582 13.3594 7.08079 12.2967 7.81543 11.2139C8.55651 10.1219 9.22344 8.98575 9.67562 7.73861C10.0043 6.83168 10.1811 5.90433 10.02 4.93612C9.63059 2.60097 7.49437 0.936487 5.12134 1.14927C3.45446 1.29895 2.22077 2.13882 1.43374 3.60271C0.817661 4.74833 0.792234 5.95615 1.14669 7.18683C1.45457 8.25655 1.96067 9.23542 2.53049 10.1847C3.41954 11.6654 4.46299 13.0415 5.45405 14.4529C5.46538 14.4694 5.47243 14.4889 5.48744 14.5188V14.5194Z" fill="#616161"/>
<path d="M2.75138 5.68677C2.75138 4.16771 3.98017 2.948 5.50889 2.94922C7.02504 2.95044 8.24985 4.17441 8.24985 5.6883C8.24985 7.20737 7.02106 8.42738 5.49234 8.42616C3.9768 8.42494 2.75138 7.20005 2.75138 5.68677ZM5.50153 3.86103C4.50435 3.86042 3.67198 4.68534 3.66708 5.67854C3.66248 6.67784 4.49669 7.51313 5.49939 7.51374C6.49688 7.51405 7.32895 6.68943 7.33385 5.69562C7.33875 4.69632 6.50485 3.86133 5.50123 3.86103H5.50153Z" fill="#616161"/>
</g>
<defs>
<clipPath id="clip0_9_1515">
<rect width="11" height="15.5833" fill="white" transform="translate(0 0.208252)"/>
</clipPath>
</defs>
</svg>
