<svg width="100" height="100" viewBox="0 0 100 100" fill="none" xmlns="http://www.w3.org/2000/svg">
<path d="M99.6452 81.1954C96.4764 99.9225 63.4442 102.042 45.795 98.6795C28.1458 95.3172 25.8028 77.6905 28.9716 58.9837C32.1404 40.277 49.1366 38.6264 66.7666 41.9888C84.4158 45.3511 102.795 62.4887 99.6452 81.1954Z" fill="#FFE502"/>
<g clip-path="url(#clip0_101_4)">
<path d="M1.48999 85.6067C0.389555 85.0384 -0.0245354 84.1266 -8.1229e-05 82.8035C0.0325243 81.1823 0.0830631 79.6168 1.07101 78.2727C2.07852 76.9008 3.36807 76.071 5.01955 76.0309C6.66939 75.9908 8.32249 76.0222 10.1109 76.0222V74.9571C10.1109 66.49 10.1109 58.0229 10.1109 49.5541C10.1109 49.2927 10.1044 49.0312 10.1142 48.7714C10.1451 47.9591 10.613 47.403 11.2847 47.3733C11.9776 47.3419 12.5351 47.9277 12.5433 48.7662C12.5596 50.7675 12.5498 52.7687 12.5498 54.7683C12.5498 55.2825 12.5498 55.7968 12.5498 56.3529H27.1408V51.1196C26.6093 51.1196 26.055 51.1266 25.5007 51.1196C23.7384 51.09 22.8369 49.725 23.4254 47.9381C24.1884 45.6196 24.9644 43.308 25.7567 40.9999C26.2507 39.5617 27.2419 38.8208 28.6716 38.8208C37.3496 38.8139 46.0259 38.8139 54.7039 38.8208C56.0929 38.8208 57.0988 39.5548 57.5781 40.9372C58.3965 43.2958 59.1986 45.6614 59.9697 48.0375C60.5093 49.7006 59.5719 51.076 57.9139 51.1179C57.3727 51.1318 56.8314 51.1196 56.2233 51.1196V56.3982C57.5797 56.3982 58.928 56.3982 60.2746 56.3982C60.5729 56.3982 60.8778 56.3703 61.1663 56.4261C61.8315 56.5551 62.2277 57.0014 62.2652 57.7301C62.301 58.4134 61.8038 58.9957 61.0946 59.0236C59.7953 59.0724 58.4927 59.048 57.1917 59.055C56.8722 59.055 56.5527 59.055 56.1956 59.055V67.97H70.7556V59.055C69.6503 59.055 68.5727 59.055 67.4935 59.055C67.1674 59.055 66.8413 59.0672 66.5169 59.048C65.7002 58.9992 65.1622 58.4814 65.1524 57.7527C65.1426 56.9996 65.7213 56.4209 66.5642 56.4034C67.676 56.3808 68.7879 56.3965 69.8998 56.3965C70.1671 56.3965 70.4329 56.3965 70.7524 56.3965V34.3058H12.5498C12.5498 34.7625 12.5498 35.2158 12.5498 35.6708C12.5498 38.0486 12.5547 40.4264 12.5465 42.8042C12.5433 43.7334 12.0558 44.3331 11.3369 44.34C10.6147 44.3453 10.1174 43.7491 10.1158 42.8234C10.1076 40.0132 10.1125 37.2031 10.1125 34.2413C9.19958 34.2413 8.31434 34.1855 7.43888 34.2517C5.18095 34.4208 3.71043 33.0332 3.74793 30.3747C3.83923 23.881 3.77727 17.3839 3.77891 10.8885C3.77891 8.60652 4.90054 7.39494 7.02479 7.37926C8.02252 7.37228 9.02025 7.37926 10.1125 7.37926C10.1125 5.96895 10.1093 4.64232 10.1125 3.3157C10.1207 1.18542 11.2391 0 13.2476 0C32.2012 0 51.1564 0 70.1101 0C72.1153 0 73.2369 1.18891 73.2435 3.31918C73.2483 4.6214 73.2435 5.92188 73.2435 7.381C74.3569 7.381 75.4264 7.36705 76.4942 7.38448C78.0658 7.41063 79.15 8.2753 79.4907 9.77276C79.5657 10.1057 79.5738 10.4614 79.5738 10.8065C79.5787 17.4763 79.5787 24.146 79.5755 30.8158C79.5755 32.953 78.4017 34.2169 76.4013 34.2395C75.3775 34.2517 74.3553 34.2413 73.2875 34.2413V76.0013C74.2901 76.0013 75.2829 75.9891 76.2758 76.0048C77.223 76.0204 78.1962 75.9281 79.1125 76.1268C81.059 76.5487 82.3828 77.8369 83.0594 79.8556C83.1392 80.0945 83.2387 80.3246 83.33 80.5599V84.0395C82.8425 84.5607 82.3535 85.0837 81.866 85.6049H1.48999V85.6067ZM70.8078 7.38274C70.8078 6.1363 70.8078 5.0119 70.8078 3.88575C70.8078 3.03154 70.3997 2.60444 69.5835 2.60444C50.982 2.60444 32.3789 2.60444 13.7774 2.60444C13.5329 2.60444 13.2688 2.54517 13.0519 2.62885C12.8596 2.70207 12.5857 2.93218 12.5824 3.10127C12.5449 4.50984 12.5612 5.92014 12.5612 7.381C13.047 7.381 13.4253 7.381 13.8035 7.381C29.1249 7.381 44.4462 7.381 59.7659 7.381C60.0904 7.381 60.4197 7.37403 60.7392 7.42458C61.393 7.52569 61.7696 7.98766 61.7989 8.65881C61.8282 9.33695 61.4647 9.82157 60.8354 9.98021C60.4979 10.0639 60.1376 10.0534 59.7871 10.0534C42.2975 10.0569 24.8062 10.0552 7.31661 10.0569C6.60037 10.0569 6.24117 10.4428 6.239 11.2144C6.239 17.5948 6.239 23.9734 6.239 30.3538C6.239 31.5636 6.24063 31.5671 7.36389 31.5671C30.2497 31.5671 53.1372 31.5671 76.0231 31.5671C77.1121 31.5671 77.1251 31.5514 77.1268 30.4165C77.1268 25.9224 77.1268 21.4265 77.1268 16.9324C77.1268 15.0183 77.0925 13.1041 77.1414 11.1918C77.1626 10.3446 76.9638 9.94535 76.1046 10.0447C75.5144 10.1127 74.9129 10.0587 74.3162 10.0587C71.6311 10.0587 68.9477 10.0639 66.2626 10.0552C65.3056 10.0517 64.7301 9.59669 64.6568 8.82268C64.5818 8.01903 65.1948 7.40017 66.1387 7.38971C67.6549 7.37054 69.1726 7.38448 70.8094 7.38448L70.8078 7.38274ZM80.834 82.9691C81.2318 80.3472 79.9455 78.5918 77.311 78.5987C53.4796 78.6598 29.6465 78.6545 5.81349 78.5987C3.67946 78.5935 2.00027 80.22 2.57087 82.9674H80.8324L80.834 82.9691ZM29.6628 75.9455H40.3542V51.1928H29.6628V75.9455ZM42.9773 75.9333H53.6736V51.1754H42.9773V75.9333ZM12.5873 67.9944H27.1538V59.1229H12.5857V67.9944H12.5873ZM27.1799 70.7H12.6052V75.9385H27.1783V70.7H27.1799ZM70.785 70.7H56.2119V75.9403H70.785V70.7ZM47.5128 48.3949C47.5193 48.2589 47.5486 48.1648 47.5242 48.0915C46.8329 46.0275 46.1498 43.96 45.4211 41.9117C45.3477 41.7042 44.9923 41.4863 44.7641 41.4828C42.7083 41.4497 40.6509 41.4427 38.5951 41.4898C38.3473 41.495 37.9887 41.8105 37.8827 42.0738C37.48 43.0796 37.1556 44.1239 36.81 45.1559C36.4578 46.2071 36.1155 47.26 35.7405 48.3949H47.5111H47.5128ZM25.8773 48.4437C28.2396 48.4437 30.46 48.4559 32.6789 48.4228C32.868 48.4193 33.1533 48.1543 33.2266 47.9451C33.9423 45.9159 34.6238 43.8746 35.3069 41.8315C35.3378 41.7391 35.2938 41.6188 35.2808 41.4636C33.0799 41.4636 30.9116 41.4497 28.745 41.4846C28.5151 41.488 28.1597 41.7304 28.0815 41.95C27.3348 44.0559 26.637 46.1792 25.8757 48.4437H25.8773ZM47.9317 41.4654C48.7143 43.7961 49.4267 45.97 50.1946 48.1247C50.2598 48.3077 50.682 48.4297 50.9412 48.4332C52.6498 48.4611 54.3583 48.4472 56.0668 48.4472C56.5103 48.4472 56.9521 48.4472 57.4835 48.4472C56.7271 46.1931 56.0375 44.096 55.3055 42.0145C55.2223 41.7809 54.8963 41.4933 54.6795 41.488C52.4867 41.4497 50.2924 41.4636 47.9317 41.4636V41.4654Z" fill="black"/>
<path d="M57.1348 20.839C57.1282 25.4656 53.6003 29.2241 49.2736 29.2172C44.9713 29.2119 41.414 25.4099 41.4058 20.8094C41.3977 16.1967 45.0251 12.3423 49.342 12.3772C53.6623 12.4121 57.1429 16.1915 57.1348 20.839ZM43.9165 20.717C43.8839 23.9368 46.2608 26.5552 49.2491 26.5901C52.1608 26.6249 54.647 24.0222 54.6975 20.8896C54.748 17.7186 52.3222 15.0758 49.329 15.0392C46.3668 15.0025 43.9491 17.539 43.9165 20.717Z" fill="black"/>
<path d="M29.7852 21.96C29.7852 23.9281 29.8015 25.8353 29.7787 27.7442C29.7673 28.7814 28.9848 29.4578 28.1843 29.1545C27.6153 28.9383 27.3219 28.4868 27.3235 27.8278C27.3251 23.1332 27.317 18.4403 27.3333 13.7457C27.3365 12.9438 27.8745 12.3895 28.5332 12.3825C29.2195 12.3773 29.7673 12.9647 29.7787 13.8085C29.8015 15.5727 29.7852 17.3386 29.7852 19.1708H36.484C36.484 17.5809 36.484 15.9998 36.484 14.4186C36.484 13.0414 36.89 12.3773 37.7279 12.3825C38.5578 12.3877 38.9409 13.0345 38.9409 14.4378C38.9409 18.6966 38.9409 22.9571 38.9409 27.2159C38.9409 27.3903 38.9441 27.5646 38.9376 27.7372C38.9066 28.6263 38.4583 29.1876 37.7638 29.2137C37.0302 29.2416 36.4987 28.6576 36.4889 27.7476C36.4726 26.1543 36.484 24.561 36.484 22.9676C36.484 22.6521 36.484 22.3383 36.484 21.9617H29.7852V21.96Z" fill="black"/>
<path d="M19.0237 29.2154C17.351 29.1352 15.561 28.4431 14.1035 26.9021C13.4465 26.2065 13.3911 25.5179 13.9079 24.9147C14.4149 24.3203 15.1632 24.3569 15.8381 25.0281C17.0886 26.2728 18.5509 26.8236 20.2317 26.4349C20.7306 26.3198 21.2409 25.9869 21.6175 25.6086C22.4277 24.7979 22.3723 23.7206 21.5001 22.9832C21.0632 22.6136 20.5366 22.3469 20.0198 22.1063C18.9797 21.6235 17.9233 21.1789 16.8652 20.7396C15.2561 20.0719 14.3709 18.8395 14.3464 16.9864C14.3187 15.0287 15.2578 13.655 16.8831 12.9158C19.3775 11.7827 21.655 12.4957 23.7336 14.1483C24.3237 14.619 24.3694 15.332 23.9749 15.923C23.5657 16.5349 22.9087 16.6795 22.2614 16.2158C21.1251 15.4 19.9285 14.8352 18.533 15.1333C18.101 15.2257 17.638 15.4314 17.3086 15.7347C16.4397 16.5331 16.6386 17.7656 17.6901 18.2485C18.7824 18.7488 19.9024 19.1794 20.9931 19.6849C21.6093 19.9708 22.2386 20.2759 22.7799 20.6926C25.2595 22.6032 25.2497 26.1054 22.7896 28.0474C21.818 28.8144 20.6181 29.2258 19.0221 29.2189L19.0237 29.2154Z" fill="black"/>
<path d="M62.2946 22.9902C62.2946 24.5069 62.3011 25.8614 62.2913 27.2142C62.2881 27.5576 62.2766 27.9132 62.1984 28.2427C62.0451 28.8825 61.587 29.3113 61.0164 29.1701C60.5942 29.0655 60.1997 28.6262 59.8997 28.241C59.7432 28.0387 59.7921 27.6326 59.7905 27.317C59.784 22.9728 59.784 18.6303 59.7872 14.2861C59.7872 12.8026 60.1915 12.3598 61.5805 12.3807C62.9581 12.3999 64.3553 12.3179 65.7068 12.5393C68.1571 12.9403 69.908 15.3443 69.7971 17.8947C69.6814 20.5758 67.7283 22.7723 65.2112 22.9763C64.2754 23.053 63.3298 22.9885 62.2962 22.9885L62.2946 22.9902ZM62.3402 20.3666C63.3005 20.3666 64.1661 20.4119 65.0269 20.3562C66.1844 20.2812 67.1561 19.2248 67.2767 18.0045C67.4039 16.7197 66.6605 15.3896 65.4769 15.1856C64.4629 15.0113 63.4032 15.149 62.3402 15.149V20.3666Z" fill="black"/>
</g>
<defs>
<clipPath id="clip0_101_4">
<rect width="83.3333" height="85.6067" fill="white"/>
</clipPath>
</defs>
</svg>
