<svg width="38" height="38" viewBox="0 0 38 38" fill="none" xmlns="http://www.w3.org/2000/svg">
<g clip-path="url(#clip0_9_1719)">
<path d="M17.442 0H18.2591C18.4267 0.0601105 18.61 0.0601105 18.7777 0H19.2223C19.3906 0.0600913 19.5746 0.0600913 19.7429 0H20.1134C20.1445 0.0262781 20.1838 0.0406948 20.2245 0.0406948C20.2652 0.0406948 20.3046 0.0262781 20.3357 0H20.56C21.1066 0.0821687 21.6613 0.0661367 22.21 0.12626C23.5957 0.305144 24.9493 0.678224 26.2311 1.23453C28.4438 2.13395 30.466 3.44508 32.1907 5.09847C33.8011 6.61562 35.1372 8.40022 36.1396 10.3733C36.9203 11.8884 37.4781 13.5084 37.7957 15.1832C37.8869 15.8417 37.943 16.5047 37.9639 17.1692C37.9639 17.2514 37.9379 17.3416 38 17.4178V17.6402C37.9737 17.6713 37.9593 17.7107 37.9593 17.7514C37.9593 17.7922 37.9737 17.8316 38 17.8627V18.2334C37.9425 18.4017 37.9425 18.5843 38 18.7525V19.1954C37.9425 19.3636 37.9425 19.5462 38 19.7145V20.5301C37.9219 21.0412 37.9219 21.5562 37.8838 22.0693C37.8005 22.9173 37.6211 23.753 37.3492 24.5604C36.6316 26.9325 35.4514 29.1388 33.8768 31.0517C32.2896 33.0013 30.3365 34.621 28.1275 35.8195C26.383 36.7556 24.5077 37.4238 22.5645 37.8016C22.0658 37.8833 21.5618 37.9281 21.0566 37.9359C19.2683 38.02 17.4761 38.0521 15.6978 37.8236C14.0958 37.6232 12.5759 37.0841 11.104 36.4208C9.40703 35.6727 7.83371 34.6706 6.43812 33.4487C4.7369 31.971 3.30634 30.2077 2.21078 28.238C1.30171 26.5938 0.639769 24.8245 0.246297 22.9872C0.0900998 22.2617 0.100112 21.5182 0.0460442 20.7827C0.0460442 20.7005 0.0720766 20.6103 0.00799561 20.5341V19.7185C0.0680586 19.5507 0.0680586 19.3672 0.00799561 19.1994V18.6823C0.0377367 18.612 0.0530629 18.5363 0.0530629 18.4599C0.0530629 18.3835 0.0377367 18.3078 0.00799561 18.2374V17.3476C0.0961069 16.8506 0.0860963 16.3456 0.132155 15.8465C0.258314 14.4436 0.696868 13.1189 1.21753 11.8243C2.1026 9.61979 3.39857 7.6039 5.03635 5.88408C6.50103 4.32623 8.21289 3.02134 10.1027 2.02215C11.7284 1.15404 13.4766 0.538416 15.2873 0.196404C15.9222 0.109497 16.5612 0.0566467 17.2017 0.0380786C17.2758 0.0300622 17.3659 0.0641316 17.442 0Z" fill="#41A0F1"/>
<path d="M18.7777 0C18.7008 0.0508525 18.6106 0.0779631 18.5184 0.0779631C18.4262 0.0779631 18.336 0.0508525 18.2591 0H18.7777Z" fill="#52A8F2"/>
<path d="M19.7429 0C19.6657 0.0510258 19.5752 0.0782276 19.4826 0.0782276C19.3901 0.0782276 19.2995 0.0510258 19.2223 0H19.7429Z" fill="#52A8F2"/>
<path d="M38 18.7544C37.9492 18.6774 37.9221 18.5872 37.9221 18.4949C37.9221 18.4026 37.9492 18.3124 38 18.2354V18.7544Z" fill="#51A8F2"/>
<path d="M0 19.1973C0.0513139 19.2741 0.0787035 19.3644 0.0787035 19.4568C0.0787035 19.5492 0.0513139 19.6395 0 19.7163V19.1973Z" fill="#4FA7F2"/>
<path d="M38 19.7163C37.9492 19.6393 37.9221 19.5491 37.9221 19.4568C37.9221 19.3645 37.9492 19.2743 38 19.1973V19.7163Z" fill="#51A8F2"/>
<path d="M0 18.2354C0.0487204 18.2993 0.0751101 18.3774 0.0751101 18.4578C0.0751101 18.5382 0.0487204 18.6164 0 18.6803V18.2354Z" fill="#4FA7F2"/>
<path d="M20.3357 0C20.2616 0.10221 20.1875 0.0801645 20.1134 0H20.3357Z" fill="#A6D2F8"/>
<path d="M38 17.8645C37.9199 17.7904 37.8999 17.7162 38 17.6421V17.8645Z" fill="#A8D4F8"/>
<path d="M26.5776 13.6541C27.1726 13.5521 27.7567 13.3937 28.3218 13.1812C28.3578 13.3816 28.2277 13.4657 28.1516 13.5639C27.7824 14.0609 27.3433 14.5017 26.8479 14.8726C26.748 14.9401 26.6684 15.0336 26.6179 15.1432C26.5674 15.2527 26.548 15.374 26.5616 15.4939C26.6036 20.1936 23.6819 24.5124 19.3244 26.0315C16.1564 27.1418 13.0525 26.8893 10.0808 25.282C9.94058 25.2058 9.80241 25.1257 9.66223 25.0475C9.67224 24.8471 9.7944 24.9674 9.8745 24.9694C12.1193 25.1477 14.258 24.2178 15.1692 23.342C13.459 23.1556 12.2795 22.2919 11.6327 20.6545C12.1974 20.6765 12.7121 20.7387 13.2227 20.5803C13.1306 20.432 12.9624 20.4481 12.8342 20.396C11.3063 19.7807 10.4592 18.6524 10.273 17.021C10.245 16.7685 10.305 16.7044 10.5494 16.8206C10.8931 16.9907 11.265 17.0966 11.6467 17.1333C11.847 17.1734 11.847 17.1693 11.867 17.0511C10.3871 15.8767 9.89452 14.0309 10.6194 12.3775C10.8017 11.9587 10.7997 11.9607 11.094 12.2893C12.9242 14.3749 15.4696 15.6972 18.2271 15.9949C18.8038 16.0651 18.8058 16.0591 18.7737 15.4739C18.6856 13.7844 19.5147 12.3434 20.9765 11.642C21.6777 11.3055 22.4638 11.1882 23.2326 11.3054C24.0013 11.4227 24.7169 11.7691 25.286 12.2994C25.3546 12.3679 25.4412 12.4157 25.5358 12.4373C25.6303 12.459 25.729 12.4535 25.8206 12.4216C26.5598 12.2317 27.2713 11.9467 27.9373 11.5739C27.6835 12.3951 27.1536 13.1032 26.4374 13.578C26.4294 13.6782 26.4394 13.6842 26.5776 13.6541Z" fill="#FEFEFE"/>
<path d="M11.867 17.0552C11.9151 17.0712 11.9771 17.1193 11.9431 17.1534C11.849 17.2496 11.7428 17.1874 11.6467 17.1373C11.7188 17.1073 11.8129 17.1373 11.867 17.0552Z" fill="#A2D1F8"/>
<path d="M9.87446 24.9691C9.80438 24.9991 9.71226 24.9691 9.6622 25.0472C9.61213 25.0332 9.55406 24.9891 9.5861 24.953C9.67822 24.8548 9.78435 24.925 9.87446 24.9691Z" fill="#83C1F6"/>
<path d="M26.5776 13.6538C26.5035 13.6999 26.4214 13.76 26.3533 13.6718C26.3232 13.6317 26.3913 13.5937 26.4414 13.5776L26.5776 13.6538Z" fill="#ACD5F8"/>
</g>
<defs>
<clipPath id="clip0_9_1719">
<rect width="38" height="38" fill="white"/>
</clipPath>
</defs>
</svg>
