<svg width="100" height="100" viewBox="0 0 100 100" fill="none" xmlns="http://www.w3.org/2000/svg">
<path d="M99.6418 81.5605C96.4434 99.9239 63.1025 102.002 45.2884 98.705C27.4743 95.408 25.1094 78.1236 28.3078 59.7801C31.5062 41.4366 48.6613 39.8181 66.456 43.1151C84.2701 46.4121 102.821 63.217 99.6418 81.5605Z" fill="#FFE502"/>
<g clip-path="url(#clip0_101_5)">
<path d="M0.82838 86.4145C0.153 85.8346 2.22841e-05 85.0908 0.00164971 84.1964C0.0276885 73.1144 0.0293159 62.0323 2.2284e-05 50.9503C-0.00323256 49.9427 0.349918 49.3442 1.15875 48.8472C5.48444 46.1844 9.78897 43.4828 14.1033 40.8015C15.6477 39.8412 16.6665 40.4482 16.6746 42.34C16.686 44.8979 16.6778 47.4541 16.6778 50.2183C17.0652 49.9123 17.3304 49.7111 17.5876 49.4981C20.9482 46.7052 24.3056 43.9122 27.6662 41.1193C27.7931 41.0145 27.9282 40.9181 28.0503 40.8083C28.5369 40.367 29.0853 40.1743 29.694 40.4701C30.3335 40.7812 30.5386 41.3746 30.5386 42.0712C30.5386 44.4617 30.5386 46.8522 30.5386 49.2428C30.5386 49.5133 30.5386 49.7838 30.5386 50.2453C31.9577 49.0686 33.2385 48.0103 34.5177 46.9486C36.9474 44.93 39.3804 42.9131 41.8052 40.886C42.3439 40.4346 42.8989 40.1422 43.584 40.4887C44.2708 40.837 44.3782 41.471 44.3733 42.1912C44.357 44.8049 44.3668 47.4203 44.3668 50.1946C44.6418 50.0019 44.8339 49.8869 45.0048 49.7449C48.494 46.8505 51.9799 43.9511 55.4675 41.0568C55.6986 40.864 55.9313 40.6629 56.1917 40.5175C57.007 40.0627 57.946 40.4921 58.1592 41.4304C58.2455 41.8074 58.2569 42.2098 58.2585 42.6003C58.2666 45.1548 58.2634 47.7094 58.2634 50.3298H61.0642C61.1797 48.7829 61.3083 47.2276 61.4124 45.6705C61.8421 39.2495 62.2701 32.8285 62.69 26.4075C63.035 21.1362 63.3767 15.8631 63.7071 10.5901C63.7982 9.13274 64.2751 8.63062 65.6698 8.62893C68.1337 8.62555 70.596 8.62386 73.0599 8.62893C74.3456 8.63231 74.8126 9.1209 74.8989 10.4311C75.3074 16.5715 75.7354 22.7118 76.1439 28.8522C76.4417 33.3391 76.72 37.826 77.0097 42.3129C77.1708 44.8083 77.3482 47.3036 77.4914 49.8007C77.5207 50.2977 77.7339 50.4076 78.1537 50.4009C79.1546 50.3839 80.1571 50.4161 81.1579 50.389C81.9831 50.367 82.7007 50.5479 83.1825 51.3138V86.4162H0.82838V86.4145ZM44.3636 83.5168C44.3636 83.1381 44.3636 82.8338 44.3636 82.5312C44.3636 76.8507 44.3636 71.1702 44.3636 65.488C44.3636 63.7974 44.803 63.3358 46.4239 63.3358C49.6185 63.3341 52.8115 63.3358 56.0061 63.3358C57.8516 63.3358 58.2585 63.7534 58.2585 65.652C58.2585 71.2767 58.2585 76.9014 58.2601 82.5261C58.2601 82.849 58.2894 83.1702 58.3041 83.4745H80.367V53.3206C80.0106 53.3206 79.6916 53.3206 79.3743 53.3206C72.282 53.3206 65.1913 53.3206 58.099 53.3206C57.8012 53.3206 57.5034 53.3256 57.2055 53.3206C55.9671 53.2986 55.4349 52.7525 55.4251 51.4541C55.4121 49.9359 55.4219 48.4161 55.4219 46.8979C55.4219 46.2639 55.4219 45.6316 55.4219 44.8505C55.0199 45.1667 54.7433 45.3763 54.478 45.5961C51.0327 48.4583 47.5875 51.3172 44.1487 54.1879C43.6035 54.6426 43.0405 54.8979 42.3667 54.5615C41.7125 54.2352 41.5839 53.6316 41.5921 52.9368C41.6116 51.4744 41.5986 50.012 41.5986 48.5496C41.5986 47.356 41.5986 46.1625 41.5986 44.8353C41.2812 45.0754 41.0843 45.2106 40.902 45.3628C37.3933 48.2774 33.883 51.187 30.384 54.1135C29.8225 54.5835 29.2481 54.9148 28.5352 54.5835C27.7997 54.2419 27.7167 53.5353 27.7167 52.8032C27.7167 50.4972 27.7167 48.1912 27.7167 45.8852C27.7167 45.5876 27.7167 45.2901 27.7167 44.8438C27.3863 45.0991 27.1926 45.2411 27.0087 45.3932C23.5212 48.2893 20.0336 51.1836 16.5525 54.0898C15.9748 54.5716 15.3808 54.9486 14.6371 54.5615C13.9324 54.1946 13.838 53.4964 13.8396 52.761C13.8461 50.2572 13.8429 47.755 13.8396 45.2512C13.8396 44.9942 13.8103 44.7373 13.7892 44.3839C10.2674 46.5784 6.86775 48.7119 3.44853 50.81C2.94077 51.1211 2.76176 51.4558 2.76339 52.0695C2.78291 62.2504 2.77803 72.4314 2.77803 82.6123C2.77803 82.9082 2.77803 83.2023 2.77803 83.5185H44.3587L44.3636 83.5168ZM66.4656 11.5841C65.6063 24.509 64.7503 37.3881 63.891 50.3315H74.7426C73.8817 37.3847 73.0241 24.5022 72.1648 11.5841H66.4656ZM47.1985 66.3164V83.4965H55.3552V66.3164H47.1985Z" fill="black"/>
<path d="M51.6105 2.96367C52.2175 2.40577 52.748 1.93239 53.2623 1.44211C55.2315 -0.431101 56.758 -0.327973 58.7321 1.26798C58.8167 1.33729 58.8867 1.4252 58.9648 1.50297C60.7387 3.23079 60.3481 3.30856 62.2115 1.44887C64.2458 -0.581567 66.6365 -0.441245 68.3306 1.88843C68.7033 2.40069 69.0418 2.86054 69.7497 3.00425C70.4625 3.14795 70.7603 3.79377 70.6627 4.56638C70.5748 5.25785 70.0264 5.74644 69.3038 5.74306C68.1451 5.73629 67.2223 5.2308 66.5356 4.26038C65.2841 2.49199 65.2287 2.48691 63.7006 4.0406C63.5264 4.21642 63.3572 4.4007 63.1684 4.55793C61.2123 6.18431 59.4384 6.05413 57.6222 4.24685C55.9182 2.55116 56.2242 2.54101 54.5512 4.22149C52.5983 6.18262 50.6405 6.17078 48.6583 4.21473C48.0708 3.63485 47.3303 3.20374 46.6143 2.78954C45.9763 2.42098 45.6329 1.78869 45.8266 1.0465C46.0105 0.341514 46.707 -0.196105 47.3792 0.0676327C48.2938 0.427736 49.1677 0.931541 49.9961 1.47761C50.5559 1.84617 51.0067 2.39562 51.6121 2.96198L51.6105 2.96367Z" fill="black"/>
<path d="M27.7671 72.0459C27.7671 73.3088 27.7719 74.5734 27.7671 75.8363C27.7589 77.2463 27.2495 77.7873 25.9183 77.7923C24.3511 77.7991 22.7823 77.7991 21.2151 77.7923C19.9554 77.7873 19.4021 77.2598 19.3923 75.98C19.3728 73.3409 19.3744 70.7002 19.3923 68.0611C19.4005 66.8168 19.9326 66.2471 21.119 66.2251C22.7399 66.1964 24.3625 66.1997 25.9834 66.2234C27.2284 66.2403 27.7524 66.8016 27.7654 68.0865C27.7784 69.4068 27.7687 70.7255 27.7687 72.0459H27.7671ZM22.294 69.2107V74.8338H24.8654V69.2107H22.294Z" fill="black"/>
<path d="M8.31125 71.9851C8.31125 70.6647 8.30149 69.346 8.31451 68.0256C8.3259 66.8253 8.83203 66.2522 9.98424 66.2285C11.6589 66.1947 13.3351 66.193 15.0114 66.2285C16.1213 66.2522 16.6534 66.7983 16.6664 67.9563C16.6974 70.6512 16.6974 73.3477 16.6664 76.0443C16.6534 77.2835 16.0968 77.789 14.8746 77.7941C13.2798 77.8025 11.6849 77.8025 10.0917 77.7941C8.83691 77.7873 8.32265 77.2514 8.31288 75.9445C8.30312 74.6241 8.31125 73.3055 8.31125 71.9851ZM13.8006 74.8794V69.2175H11.1202C11.1202 71.0011 11.1104 72.7391 11.1381 74.4737C11.1397 74.6106 11.3838 74.8524 11.5254 74.8608C12.274 74.8997 13.0243 74.8794 13.8022 74.8794H13.8006Z" fill="black"/>
<path d="M38.8303 72.0054C38.8303 73.3258 38.8352 74.6445 38.8303 75.9648C38.8238 77.2345 38.3209 77.7823 37.1264 77.7924C35.4778 77.8059 33.8292 77.8059 32.1807 77.7924C31.0577 77.7823 30.5207 77.2649 30.5109 76.1069C30.4865 73.3833 30.4881 70.6597 30.5109 67.9361C30.5207 66.7797 31.0333 66.2505 32.1676 66.2285C33.8423 66.1947 35.5185 66.1914 37.1931 66.2285C38.3453 66.2556 38.8222 66.8236 38.8303 68.046C38.8368 69.3663 38.8319 70.685 38.8319 72.0054H38.8303ZM33.3622 69.2108V74.8271H36.01V69.2108H33.3622Z" fill="black"/>
</g>
<defs>
<clipPath id="clip0_101_5">
<rect width="83.1776" height="86.4145" fill="white"/>
</clipPath>
</defs>
</svg>
