<svg width="16" height="15" viewBox="0 0 16 15" fill="none" xmlns="http://www.w3.org/2000/svg">
<path d="M11.8701 14.8417C10.7753 14.8254 9.87665 14.5158 9.01063 14.1044C7.52779 13.3998 6.22877 12.4305 5.03188 11.3145C3.65116 10.0315 2.44201 8.60591 1.5188 6.95228C1.04903 6.11324 0.66913 5.23755 0.505732 4.28447C0.407693 3.71833 0.383183 3.14404 0.611941 2.60233C0.714065 2.36202 0.857039 2.12986 1.03678 1.94251C1.53923 1.40894 2.07027 0.89982 2.59315 0.382551C3.03433 -0.0532591 3.64299 -0.0573317 4.08416 0.378478C4.81129 1.09532 5.53024 1.81624 6.2492 2.53716C6.67812 2.9689 6.67812 3.5717 6.25328 4.01158C6.04495 4.22745 5.8407 4.45147 5.61194 4.64697C5.27697 4.92801 5.22795 5.27421 5.31782 5.66929C5.44037 6.19878 5.68139 6.67124 5.98776 7.1152C6.73122 8.19454 7.65443 9.07838 8.82681 9.68118C9.17812 9.86039 9.54576 9.99888 9.94609 10.0152C10.1994 10.0274 10.4118 9.95407 10.5915 9.76264C10.8162 9.51826 11.0572 9.29018 11.2941 9.05802C11.7353 8.62221 12.344 8.61813 12.7811 9.04987C13.5041 9.76672 14.2271 10.4876 14.9461 11.2086C15.3832 11.6444 15.3791 12.2553 14.942 12.6952C14.4355 13.2043 13.9289 13.7134 13.4142 14.2144C12.9526 14.6624 12.393 14.858 11.8701 14.8417ZM5.14625 4.50441C4.1291 3.49024 3.11603 2.48014 2.09887 1.46597C1.85786 1.70627 1.60459 1.96287 1.34723 2.21947C1.14707 2.41904 1.01227 2.65528 0.942823 2.92817C0.816189 3.41693 0.861124 3.90976 0.963248 4.39444C1.15116 5.27828 1.51472 6.09695 1.97223 6.87082C3.57354 9.5875 5.73857 11.7462 8.47142 13.3306C9.38237 13.8601 10.3464 14.2755 11.4126 14.3936C11.9069 14.4466 12.4134 14.4425 12.826 14.137C13.2059 13.856 13.5327 13.4976 13.8677 13.184C12.8342 12.1535 11.8252 11.1475 10.8121 10.1374C10.4404 10.4632 10.0564 10.4876 9.66423 10.4062C9.35377 10.3369 9.03923 10.2514 8.7492 10.117C7.634 9.59972 6.74348 8.79734 5.98367 7.84834C5.52616 7.27812 5.13808 6.65902 4.94201 5.94625C4.8072 5.42491 4.76227 4.91579 5.14625 4.50441ZM5.50573 4.16636C5.65279 4.01566 5.80802 3.86088 5.95508 3.70611C6.20018 3.44544 6.20018 3.10331 5.94691 2.84671C5.759 2.65528 5.56701 2.46385 5.37501 2.27242C4.83988 1.73886 4.30884 1.20529 3.77371 0.675806C3.53678 0.439572 3.20589 0.406989 2.97305 0.610638C2.78514 0.773558 2.62583 0.964988 2.46243 1.13605C3.46733 2.13394 4.47632 3.13996 5.50573 4.16636ZM14.2067 12.8418C14.3456 12.6993 14.4845 12.5526 14.6275 12.406C14.9134 12.1128 14.9134 11.7788 14.6275 11.4896C14.3374 11.1963 14.0433 10.9072 13.7492 10.6139C13.3284 10.1944 12.9077 9.77079 12.4829 9.35127C12.2418 9.11504 11.9069 9.08245 11.6659 9.29018C11.482 9.44902 11.3227 9.63638 11.1634 9.80337C12.1683 10.8094 13.1773 11.8154 14.2067 12.8418Z" fill="black"/>
<path d="M8.06293 1.11161C8.06293 0.969059 8.06293 0.838723 8.06293 0.71246C11.6373 0.618782 14.7133 3.76313 14.607 7.24146C14.4804 7.24146 14.3579 7.24146 14.2108 7.24146C14.1781 5.56746 13.594 4.10933 12.4012 2.92002C11.2124 1.73071 9.75819 1.14827 8.06293 1.11161Z" fill="black"/>
<path d="M12.8505 7.23737C12.7198 7.23737 12.5891 7.23737 12.4502 7.23737C12.4257 6.03177 12.0049 4.99316 11.1512 4.14598C10.3015 3.30287 9.26391 2.88742 8.06293 2.85891C8.06293 2.72043 8.06293 2.59009 8.06293 2.45976C10.6283 2.37423 12.9404 4.6551 12.8505 7.23737Z" fill="black"/>
<path d="M11.1021 7.42475C10.9714 7.42475 10.8407 7.42475 10.6977 7.42475C10.6732 6.7079 10.4281 6.08474 9.92159 5.57561C9.41097 5.06649 8.79005 4.81396 8.06293 4.79767C8.06293 4.65512 8.06293 4.52478 8.06293 4.39445C9.58254 4.31706 11.1552 5.68966 11.1021 7.42475Z" fill="black"/>
</svg>
